<?xml version="1.0" encoding="UTF-8"?>
<svg width="309px" height="120px" viewBox="0 0 309 120" version="1.1" xmlns="http://www.w3.org/2000/svg" xmlns:xlink="http://www.w3.org/1999/xlink">
    <!-- Generator: Sketch 52.5 (67469) - http://www.bohemiancoding.com/sketch -->
    <title>dzinz-logo</title>
    <desc>Created with Sketch.</desc>
    <g id="Page-1" stroke="none" stroke-width="1" fill="none" fill-rule="evenodd">
        <g id="02" transform="translate(-170.000000, -228.000000)" fill="#007984">
            <g id="dzinz-logo" transform="translate(170.135198, 228.348307)">
                <path d="M8.63888975,22.2837336 C8.63888975,14.3498129 8.38050216,11.3595091 8.12211457,9.27798621 C7.73266081,7.06825354 6.8301766,6.15570182 0.759940545,5.11871123 C-0.273609827,4.98673061 -0.273609827,3.68577879 0.887261967,3.55756904 C4.63575444,3.16539806 13.4171878,1.8682171 24.3930434,1.8682171 C35.8856742,1.8682171 43.5062358,3.94974003 48.4118553,8.109015 C53.448541,12.5284803 56.1597384,18.7730491 56.1597384,27.3555603 C56.1597384,39.9691367 50.4789561,46.5983347 42.9894606,51.6701614 C34.076961,57.5225592 23.2321716,57.9147302 19.3563577,57.9147302 C16.7724818,57.9147302 13.6755754,57.7827496 11.4811533,57.6545398 C9.41405253,57.6545398 7.60533938,57.5225592 6.70285518,57.6545398 C5.53823864,57.6545398 3.86059166,57.6545398 2.44133227,57.7827496 C1.27671573,57.9147302 1.01832814,56.3498171 2.18294468,56.0933976 C5.02146345,55.5730169 6.96124277,54.2720651 7.73266081,51.409971 C8.24943599,49.4604287 8.63888975,45.6895539 8.63888975,35.0255198 L8.63888975,22.2837336 Z M16.6451604,37.8876138 C16.6451604,45.8215345 17.0346141,49.5924094 17.4203232,50.8895903 C17.8060322,52.0623324 18.8395826,52.8391326 19.4836792,52.9711132 C20.5172295,53.2313036 23.2321716,53.491494 25.5539152,53.491494 C30.7216671,53.491494 36.5335155,52.3225228 40.0198757,49.7206191 C44.7981738,45.9497442 47.378305,39.3167754 47.378305,30.2138834 C47.378305,15.7789745 39.6304219,5.37513073 22.3259427,5.37513073 C20.7793619,5.37513073 19.4836792,5.50711135 18.7122611,5.76730171 C18.0644198,6.02749208 17.4203232,6.28768244 17.1619356,8.109015 C16.903548,9.53817657 16.6451604,12.9206513 16.6451604,23.3244951 L16.6451604,37.8876138 Z" id="Combined-Shape"></path>
                <path d="M96.1224939,2.3937832 C107.030552,2.3937832 108.478861,2.12514663 109.789962,2.12514663 C110.712307,2.12514663 111.108686,3.06342799 110.319739,3.86933771 C102.430263,12.3294431 81.9290602,42.0001579 74.6989465,53.4113723 C74.0433958,54.4859186 74.0433958,54.8869268 74.8323434,55.0231917 C76.4064272,55.2918283 79.8252,55.2918283 88.8961914,55.2918283 C98.2263541,55.1594566 102.56366,54.0849104 104.797106,53.0103641 C106.637983,52.2044544 108.345464,50.3239983 110.319739,45.8934415 C110.975289,44.5502587 112.553185,44.6865236 112.290202,45.8934415 C111.764237,49.6543536 111.108686,53.6800089 109.923359,57.7095574 C109.267809,59.5861202 108.478861,59.7223851 104.66752,59.7223851 C100.4598,59.7223851 95.4669432,59.85865 90.8666547,59.7223851 C82.5846109,59.5861202 72.9914657,59.3213769 68.7837453,59.3213769 C65.1058013,59.3213769 62.4759761,59.4537485 60.6350984,59.4537485 C59.9795478,59.4537485 59.5831683,58.6478388 60.2425303,57.8419291 C70.3616405,45.7610699 92.0481704,14.6109073 95.8595113,8.43615944 C96.5188733,7.36161315 96.2558908,6.82434001 95.3335463,6.69196836 C93.7556511,6.42333179 91.2592228,6.42333179 86.3959518,6.42333179 C76.6694097,6.42333179 73.1210513,7.36161315 71.5431562,8.56853109 C69.5726929,9.77544902 68.2577803,11.79217 66.5502995,15.8178253 C66.0243345,17.1610081 64.5798363,17.0286365 64.7094219,15.416817 C65.3687839,10.0479789 65.8909376,6.69196836 66.0243345,1.9888817 C66.0243345,-0.288689241 67.2096615,-0.424954169 67.8652122,0.649592121 C68.9171423,2.25751827 72.5950863,2.3937832 77.4621686,2.3937832 L96.1224939,2.3937832 Z" id="Fill-4"></path>
                <path d="M127.628744,26.024268 C127.628744,18.2044396 127.628744,13.2532674 127.097507,10.5131149 C126.30065,7.12666431 123.378843,6.08351659 120.726504,5.4296595 C119.664028,5.16887257 119.794913,3.73643421 121.388626,3.73643421 C126.697154,3.73643421 129.087723,4.12950436 133.072006,4.12950436 C135.989964,4.12950436 138.380534,3.73643421 142.099198,3.73643421 C143.689061,3.73643421 143.689061,5.16887257 142.364816,5.4296595 C140.108981,5.95123336 137.052439,6.99438109 136.525051,10.1238243 C135.859079,13.2532674 135.859079,18.2044396 135.859079,26.024268 L135.859079,37.6236172 C135.859079,45.4434456 135.859079,50.1376104 136.655936,53.3955572 C137.318058,56.3927172 140.108981,57.4358649 143.292558,58.0859425 C144.485918,58.3467294 144.485918,59.7829473 142.896054,59.7829473 C138.515268,59.7829473 135.327842,59.3898771 131.613027,59.3898771 C128.425601,59.3898771 125.10729,59.7829473 120.992123,59.7829473 C119.529294,59.7829473 119.39841,58.3467294 120.726504,58.0859425 C123.378843,57.6966518 126.431535,56.3927172 126.966622,54.0456348 C127.628744,50.1376104 127.628744,45.4434456 127.628744,37.6236172 L127.628744,26.024268 Z" id="Fill-6"></path>
                <path d="M202.775844,41.0583338 C202.775844,50.7427039 203.036386,56.2964243 203.168545,57.3300229 C203.429086,59.5245476 202.647461,59.7829473 201.865835,59.7829473 C200.823667,59.7829473 199.260415,58.8804209 198.350406,58.1052219 C196.787155,56.8132236 195.484445,55.5212253 195.223903,55.1354982 C186.10871,43.8969852 171.393754,26.2059704 163.060187,16.9073273 C162.671262,16.5216003 162.41072,17.0346547 162.278561,18.0719983 C162.150178,19.2329243 162.150178,21.5547764 162.150178,27.2395691 L162.150178,38.2159375 C162.150178,53.4577729 164.623439,55.1354982 167.357241,56.1690969 L171.133212,57.5884226 C172.17538,57.9778945 172.17538,59.3972203 170.483745,59.266148 C167.357241,59.1388206 163.973972,58.8804209 160.326385,58.8804209 C156.678797,58.8804209 152.902827,59.266148 150.169024,59.266148 C148.47739,59.266148 148.47739,58.1052219 149.64794,57.5884226 L152.25336,56.5548239 C154.337696,55.7796249 156.289872,54.2292269 156.939339,52.1620296 C157.592582,49.7128502 158.113666,41.5751331 158.113666,32.0180904 L158.113666,18.5887976 C158.113666,13.0350773 157.592582,11.7430789 156.678797,10.0653536 C155.119321,7.35402953 151.471734,6.18935857 148.737931,5.41415957 C147.563605,5.15575991 147.563605,3.73643421 148.998473,3.73643421 C152.646061,3.73643421 155.768788,4.25323354 158.763133,4.25323354 C159.805301,4.25323354 160.847468,4.25323354 162.41072,4.12216124 C164.362897,3.99483387 164.755598,4.12216124 164.883981,4.77003287 C165.272906,6.18935857 166.054532,7.73975657 168.271026,10.3200083 C171.914838,15.3569293 182.721665,28.2731677 197.697163,44.1591298 C198.607172,45.0616562 198.87149,44.9343288 198.87149,43.7696578 L198.87149,31.115564 C198.87149,23.1089193 198.478789,18.9745247 197.957705,14.1960033 C197.308238,8.12548361 195.87337,7.09188494 189.495756,5.41415957 C188.193046,5.15575991 188.453588,3.73643421 189.756298,3.73643421 C193.271726,3.73643421 197.047697,4.12216124 200.955826,4.12216124 C204.339095,4.12216124 207.465599,3.73643421 210.327784,3.73643421 C211.891036,3.73643421 211.891036,4.89736024 210.588326,5.41415957 C207.465599,6.7061579 204.988562,7.99815623 204.078553,12.6456053 C203.429086,16.390528 202.775844,23.2362467 202.775844,31.7596907 L202.775844,41.0583338 Z" id="Fill-8"></path>
                <path d="M262.546037,80.1712137 C254.593485,75.30009 251.015029,72.2728164 242.132309,65.0310283 C234.579498,58.8466863 227.553271,56.2126147 222.118322,56.2126147 C219.070292,56.2126147 216.683373,56.739429 215.092094,58.1862597 C213.900557,59.106276 212.709019,58.0564648 213.900557,56.8692239 C220.661571,49.7610481 230.735829,36.2013056 236.962573,27.3828921 C242.797264,19.4844948 245.710765,15.6669997 251.015029,7.50137779 C251.810668,6.31795432 251.810668,6.18815949 250.484603,6.05454716 C247.432729,5.92475233 245.314867,5.92475233 236.962573,5.92475233 C228.214382,5.92475233 226.227205,7.1081758 224.635926,9.87204222 C222.913962,12.5061138 222.25285,14.0865568 221.853109,15.9265894 C221.587896,17.2436252 219.731403,17.2436252 219.996617,15.7967946 C220.26183,14.3499639 220.792256,9.87204222 220.792256,6.44774915 C220.792256,4.73751137 220.661571,3.02727358 220.661571,1.18342347 C220.661571,0.393201991 221.057469,0 221.587896,0 C222.118322,0 222.648748,0.263407159 223.840286,0.920016309 C225.166352,1.44683063 228.214382,1.97364495 235.771036,1.97364495 L250.8805,1.97364495 C261.884926,1.71023779 263.60689,1.44683063 264.932956,1.05362864 C266.255178,0.65660915 266.789448,1.71023779 265.989965,2.50045926 C262.676722,5.79114 257.245617,11.9792995 247.701786,24.8824328 C237.627528,38.7017649 231.262412,48.1806051 229.010021,51.341491 C228.083697,52.7883217 227.949169,53.315136 229.14455,53.315136 C231.792838,53.315136 238.157955,54.8955789 244.649912,59.106276 C250.219389,62.6641814 260.689545,70.0357643 268.246199,74.3800737 C279.116096,80.5682332 285.608054,81.6180443 290.116678,81.6180443 C300.852047,81.6180443 304.826401,76.6171258 307.347848,71.7460021 C307.878275,70.6923735 309.204341,71.2191878 308.804599,72.2728164 C306.421524,78.9877902 300.056407,87.8062038 285.742582,87.8062038 C277.259604,87.8062038 270.367905,84.9125426 262.546037,80.1712137" id="Fill-10"></path>
                <path d="M203.559872,108.559248 C195.680628,113.601077 187.013078,115.985466 178.216049,115.985466 C166.395278,115.985466 153.656722,112.270434 142.757545,108.293889 C134.874493,105.374936 121.6104,100.733069 98.2354358,92.9107354 C84.0535578,88.2688689 72.3660756,85.4845181 57.2626041,85.4845181 C46.6261956,85.4845181 36.9075724,89.3303065 33.3621029,92.645376 C29.4205767,96.225805 28.1067346,99.9369908 28.1067346,102.990547 C28.1067346,105.374936 28.5027913,106.836335 29.6833451,108.424646 C30.3421702,109.355326 31.1304755,110.416764 31.1304755,112.005075 C31.1304755,117.708379 24.9573218,119.565895 22.5924061,119.565895 C18.2586313,119.565895 14.9759302,115.720106 14.9759302,110.682123 C14.9759302,106.570976 17.2075576,98.6140396 31.1304755,88.3996257 C44.1317997,79.1158926 58.4469661,77.12762 68.5578377,77.12762 C82.0846988,77.12762 97.0548821,81.5041272 105.196895,84.0231185 C116.096072,87.2074313 140.129861,96.3604076 153.393954,100.867672 C166.524758,105.509538 175.192308,107.232451 186.224773,107.232451 C203.034335,107.232451 208.552472,99.0101558 208.552472,93.572211 C208.552472,91.1839765 207.764167,89.5956659 207.105341,88.5342283 C206.450324,87.6035475 205.399251,86.4113531 205.399251,84.4230805 C205.399251,82.034846 208.681952,76.5969012 213.541263,76.5969012 C218.004518,76.5969012 220.894971,80.3119328 220.894971,85.7498775 C220.894971,91.7185411 215.380642,100.867672 203.559872,108.559248" id="Fill-12"></path>
            </g>
        </g>
    </g>
</svg>