<?xml version="1.0" encoding="UTF-8"?>
<svg width="65px" height="64px" viewBox="0 0 65 64" version="1.1" xmlns="http://www.w3.org/2000/svg" xmlns:xlink="http://www.w3.org/1999/xlink">
    <!-- Generator: Sketch 52.5 (67469) - http://www.bohemiancoding.com/sketch -->
    <title>icon-2d-3d-concepts</title>
    <desc>Created with Sketch.</desc>
    <g id="Page-1" stroke="none" stroke-width="1" fill="none" fill-rule="evenodd" stroke-linejoin="round">
        <g id="02" transform="translate(-228.000000, -1171.000000)" stroke="#007984" stroke-width="2">
            <g id="icon-2d-3d-concepts" transform="translate(229.452296, 1171.742937)">
                <path d="M61.6666667,56.3333333 C61.6666667,59.2773333 59.28,61.6666667 56.3333333,61.6666667 L5.66666667,61.6666667 C2.72266667,61.6666667 0.333333333,59.2773333 0.333333333,56.3333333 L0.333333333,5.66666667 C0.333333333,2.72266667 2.72266667,0.333333333 5.66666667,0.333333333 L56.3333333,0.333333333 C59.28,0.333333333 61.6666667,2.72266667 61.6666667,5.66666667 L61.6666667,56.3333333 L61.6666667,56.3333333 Z" id="Stroke-7193" stroke-linecap="round"></path>
                <path d="M0.333333333,13.6666667 L61.6666667,13.6666667" id="Stroke-7194" stroke-linecap="round"></path>
                <path d="M11,7 C11,7.736 10.4026667,8.33333333 9.66666667,8.33333333 C8.93066667,8.33333333 8.33333333,7.736 8.33333333,7 C8.33333333,6.264 8.93066667,5.66666667 9.66666667,5.66666667 C10.4026667,5.66666667 11,6.264 11,7 L11,7 Z" id="Stroke-7195" stroke-linecap="round"></path>
                <path d="M19,7 C19,7.736 18.4026667,8.33333333 17.6666667,8.33333333 C16.9306667,8.33333333 16.3333333,7.736 16.3333333,7 C16.3333333,6.264 16.9306667,5.66666667 17.6666667,5.66666667 C18.4026667,5.66666667 19,6.264 19,7 L19,7 Z" id="Stroke-7196" stroke-linecap="round"></path>
                <path d="M27,7 C27,7.736 26.4026667,8.33333333 25.6666667,8.33333333 C24.9306667,8.33333333 24.3333333,7.736 24.3333333,7 C24.3333333,6.264 24.9306667,5.66666667 25.6666667,5.66666667 C26.4026667,5.66666667 27,6.264 27,7 L27,7 Z" id="Stroke-7197" stroke-linecap="round"></path>
                <polygon id="Stroke-7198" stroke-linecap="round" points="16.3333333 21.6666667 8.33333333 21.6666667 8.33333333 53.6666667 16.3333333 53.6666667"></polygon>
                <path d="M8.33333333,29.6666667 L16.3333333,29.6666667" id="Stroke-7199" stroke-linecap="round"></path>
                <path d="M8.33333333,37.6666667 L16.3333333,37.6666667" id="Stroke-7200" stroke-linecap="round"></path>
                <path d="M8.33333333,45.6666667 L16.3333333,45.6666667" id="Stroke-7201" stroke-linecap="round"></path>
                <polygon id="Stroke-7202" points="37.6666667 40.3333333 41.6666667 40.3333333 44.8346667 43 53.6666667 43 53.6666667 53.6666667 37.6666667 53.6666667"></polygon>
                <path d="M28.2917333,36.4165333 L47.0544,25.7765333" id="Stroke-7203" stroke-linecap="round"></path>
                <path d="M52.3333333,24.3333333 C52.3333333,25.8053333 51.1386667,27 49.6666667,27 C48.1946667,27 47,25.8053333 47,24.3333333 C47,22.8613333 48.1946667,21.6666667 49.6666667,21.6666667 C51.1386667,21.6666667 52.3333333,22.8613333 52.3333333,24.3333333 L52.3333333,24.3333333 Z" id="Stroke-7204" stroke-linecap="round"></path>
                <path d="M27.3333333,37.6666667 C27.3333333,39.1386667 26.1386667,40.3333333 24.6666667,40.3333333 C23.1946667,40.3333333 22,39.1386667 22,37.6666667 C22,36.1946667 23.1946667,35 24.6666667,35 C26.1386667,35 27.3333333,36.1946667 27.3333333,37.6666667 L27.3333333,37.6666667 Z" id="Stroke-7205" stroke-linecap="round"></path>
            </g>
        </g>
    </g>
</svg>