<?xml version="1.0" encoding="UTF-8"?>
<svg width="25px" height="25px" viewBox="0 0 25 25" version="1.1" xmlns="http://www.w3.org/2000/svg" xmlns:xlink="http://www.w3.org/1999/xlink">
    <!-- Generator: Sketch 52.5 (67469) - http://www.bohemiancoding.com/sketch -->
    <title>icon-phone</title>
    <desc>Created with Sketch.</desc>
    <g id="Page-1" stroke="none" stroke-width="1" fill="none" fill-rule="evenodd">
        <g id="02" transform="translate(-1585.000000, -1997.000000)">
            <g id="icon-phone" transform="translate(1585.513514, 1997.699781)">
                <path d="M11.5,14.5240977 L11.5,21.5240977 C11.5,22.6290977 10.604,23.5240977 9.5,23.5240977 L2.5,23.5240977 C1.396,23.5240977 0.5,22.6290977 0.5,21.5240977 L0.5,6.52409766 C0.5,5.42009766 1.396,4.52409766 2.5,4.52409766 L5.5,4.52409766" id="Stroke-1" stroke="#FFFFFF" stroke-linecap="round" stroke-linejoin="round"></path>
                <path d="M5.5,8.52409766 L0.5,8.52409766" id="Stroke-3" stroke="#FFFFFF" stroke-linecap="round" stroke-linejoin="round"></path>
                <path d="M11.5,19.5240977 L0.5,19.5240977" id="Stroke-5" stroke="#FFFFFF" stroke-linecap="round" stroke-linejoin="round"></path>
                <path d="M4.5,6.52409766 L5.5,6.52409766" id="Stroke-7" stroke="#FFFFFF" stroke-linecap="round" stroke-linejoin="round"></path>
                <path d="M23.5,8.02409766 C23.5,8.85209766 22.828,9.52409766 22,9.52409766 L16.5,9.52409766 L13.5,12.5240977 L13.5,9.52409766 L10,9.52409766 C9.172,9.52409766 8.5,8.85209766 8.5,8.02409766 L8.5,2.02409766 C8.5,1.19609766 9.172,0.524097656 10,0.524097656 L22,0.524097656 C22.828,0.524097656 23.5,1.19609766 23.5,2.02409766 L23.5,8.02409766 L23.5,8.02409766 Z" id="Stroke-9" stroke="#FFFFFF" stroke-linecap="round" stroke-linejoin="round"></path>
                <path d="M16.5,4.02409766 C16.224,4.02409766 16,4.24909766 16,4.52409766 C16,4.80009766 16.224,5.02409766 16.5,5.02409766 C16.776,5.02409766 17,4.80009766 17,4.52409766 C17,4.24909766 16.776,4.02409766 16.5,4.02409766" id="Fill-11" fill="#FFFFFF"></path>
                <path d="M19.5,4.02409766 C19.224,4.02409766 19,4.24909766 19,4.52409766 C19,4.80009766 19.224,5.02409766 19.5,5.02409766 C19.776,5.02409766 20,4.80009766 20,4.52409766 C20,4.24909766 19.776,4.02409766 19.5,4.02409766" id="Fill-13" fill="#FFFFFF"></path>
                <path d="M13.5312,4.02409766 C13.2552,4.02409766 13.0312,4.24909766 13.0312,4.52409766 C13.0312,4.80009766 13.2552,5.02409766 13.5312,5.02409766 C13.8072,5.02409766 14.0312,4.80009766 14.0312,4.52409766 C14.0312,4.24909766 13.8072,4.02409766 13.5312,4.02409766" id="Fill-15" fill="#FFFFFF"></path>
                <path d="M6.5,21.5240977 C6.5,21.8000977 6.276,22.0240977 6,22.0240977 C5.724,22.0240977 5.5,21.8000977 5.5,21.5240977 C5.5,21.2480977 5.724,21.0240977 6,21.0240977 C6.276,21.0240977 6.5,21.2480977 6.5,21.5240977 L6.5,21.5240977 Z" id="Stroke-17" stroke="#FFFFFF" stroke-linejoin="round"></path>
            </g>
        </g>
    </g>
</svg>