<?xml version="1.0" encoding="UTF-8"?>
<svg width="25px" height="25px" viewBox="0 0 25 25" version="1.1" xmlns="http://www.w3.org/2000/svg" xmlns:xlink="http://www.w3.org/1999/xlink">
    <!-- Generator: Sketch 52.5 (67469) - http://www.bohemiancoding.com/sketch -->
    <title>icon-location</title>
    <desc>Created with Sketch.</desc>
    <g id="Page-1" stroke="none" stroke-width="1" fill="none" fill-rule="evenodd" stroke-linejoin="round">
        <g id="02" transform="translate(-1585.000000, -2033.000000)" stroke="#FFFFFF">
            <g id="icon-location" transform="translate(1585.513514, 2033.959605)">
                <path d="M14.5,3.5 C14.5,5.157 13.157,6.5 11.5,6.5 C9.843,6.5 8.5,5.157 8.5,3.5 C8.5,1.843 9.843,0.5 11.5,0.5 C13.157,0.5 14.5,1.843 14.5,3.5 L14.5,3.5 Z" id="Stroke-66" stroke-linecap="round"></path>
                <path d="M11.5,6.5 L11.5,17" id="Stroke-68" stroke-linecap="round"></path>
                <polyline id="Stroke-70" stroke-linecap="round" points="8.5 12.2783 7.5 12.5003 0.5 10.5003 0.5 21.5003 7.5 23.5003 16.5 21.5003 23.5 23.5003 23.5 12.5003 16.5 10.5003 14.5 10.9453"></polyline>
                <path d="M7.5,12.5 L7.5,23.5" id="Stroke-72"></path>
                <path d="M16.5,10.5 L16.5,21.5" id="Stroke-74"></path>
                <path d="M11.5,2.5 C12.052,2.5 12.5,2.948 12.5,3.5" id="Stroke-76" stroke-linecap="round"></path>
            </g>
        </g>
    </g>
</svg>