<?xml version="1.0" encoding="UTF-8"?>
<svg width="45px" height="64px" viewBox="0 0 45 64" version="1.1" xmlns="http://www.w3.org/2000/svg" xmlns:xlink="http://www.w3.org/1999/xlink">
    <!-- Generator: Sketch 52.5 (67469) - http://www.bohemiancoding.com/sketch -->
    <title>icon-bathrooms</title>
    <desc>Created with Sketch.</desc>
    <g id="Page-1" stroke="none" stroke-width="1" fill="none" fill-rule="evenodd" stroke-linejoin="round">
        <g id="02" transform="translate(-618.000000, -1512.000000)" stroke="#007984" stroke-width="2">
            <g id="icon-bathrooms" transform="translate(619.785629, 1512.742937)">
                <path d="M12.6666667,16.3333333 L12.6666667,15 C12.6666667,6.89866667 19.2346667,0.333333333 27.3333333,0.333333333 C35.4346667,0.333333333 42,6.89866667 42,15 L42,63" id="Stroke-3843"></path>
                <path d="M23.3333333,27 C23.3333333,21.112 18.56,16.3333333 12.6666667,16.3333333 C6.776,16.3333333 2,21.112 2,27 L2,29.6666667 L23.3333333,29.6666667 L23.3333333,27 L23.3333333,27 Z" id="Stroke-3844"></path>
                <path d="M12.6666667,44.3333333 L12.6666667,39" id="Stroke-3845" stroke-linecap="round"></path>
                <path d="M12.6666667,60.3333333 L12.6666667,55" id="Stroke-3846" stroke-linecap="round"></path>
                <path d="M22.4922667,44.4037333 L21.6496,39.1344" id="Stroke-3847" stroke-linecap="round"></path>
                <path d="M25.0181333,60.2032 L24.1781333,54.9338667" id="Stroke-3848" stroke-linecap="round"></path>
                <path d="M2.61973333,44.4037333 L3.4624,39.1344" id="Stroke-3849" stroke-linecap="round"></path>
                <path d="M0.0938666667,60.2032 L0.936533333,54.9338667" id="Stroke-3850" stroke-linecap="round"></path>
            </g>
        </g>
    </g>
</svg>