<?xml version="1.0" encoding="UTF-8"?>
<svg width="25px" height="25px" viewBox="0 0 25 25" version="1.1" xmlns="http://www.w3.org/2000/svg" xmlns:xlink="http://www.w3.org/1999/xlink">
    <!-- Generator: Sketch 52.5 (67469) - http://www.bohemiancoding.com/sketch -->
    <title>icon-email</title>
    <desc>Created with Sketch.</desc>
    <g id="Page-1" stroke="none" stroke-width="1" fill="none" fill-rule="evenodd" stroke-linecap="round" stroke-linejoin="round">
        <g id="02" transform="translate(-1585.000000, -1954.000000)" stroke="#FFFFFF">
            <g id="icon-email" transform="translate(1585.513514, 1954.742937)">
                <path d="M19.5,8.75 L23.5,11.5 L23.5,22 C23.5,22.828 22.828,23.5 22,23.5 L2,23.5 C1.172,23.5 0.5,22.828 0.5,22 L0.5,11.5 L4.5,8.75" id="Stroke-131"></path>
                <polyline id="Stroke-132" points="3.5 20.5 8.5 16.5 15.5 16.5 20.5 20.5"></polyline>
                <path d="M23.5,11.5 L17.5,15.5" id="Stroke-133"></path>
                <path d="M0.5,11.5 L6.5,15.5" id="Stroke-134"></path>
                <polyline id="Stroke-135" points="19.5 14 19.5 0.5 4.5 0.5 4.5 14"></polyline>
                <path d="M7.5,3.5 L9.5,3.5" id="Stroke-136"></path>
                <path d="M9.5,6.5 L16.5,6.5" id="Stroke-137"></path>
                <path d="M7.5,9.5 L16.5,9.5" id="Stroke-138"></path>
                <path d="M7.5,12.5 L16.5,12.5" id="Stroke-139"></path>
            </g>
        </g>
    </g>
</svg>