<?xml version="1.0" encoding="UTF-8"?>
<svg width="77px" height="60px" viewBox="0 0 77 60" version="1.1" xmlns="http://www.w3.org/2000/svg" xmlns:xlink="http://www.w3.org/1999/xlink">
    <!-- Generator: Sketch 52.5 (67469) - http://www.bohemiancoding.com/sketch -->
    <title>icon-turnkey</title>
    <desc>Created with Sketch.</desc>
    <g id="Page-1" stroke="none" stroke-width="1" fill="none" fill-rule="evenodd" stroke-linejoin="round">
        <g id="02" transform="translate(-1382.000000, -1512.000000)" stroke="#007984" stroke-width="2">
            <g id="icon-turnkey" transform="translate(1383.052296, 1512.742937)">
                <path d="M74.2,15 C74.2,22.9552 67.7488,29.4 59.8,29.4 L32.4368,29.4 C28.9904,29.4 26.2,26.6064 26.2,23.1568 L26.2,5.4 C26.2,2.7504 28.3472,0.6 31,0.6 L59.8,0.6 C67.7488,0.6 74.2,7.048 74.2,15 L74.2,15 Z" id="Stroke-540" stroke-linecap="round"></path>
                <polygon id="Stroke-541" stroke-linecap="round" points="16.6 23 26.2 23 26.2 7 16.6 7"></polygon>
                <path d="M0.6,16.6 L16.6,16.6" id="Stroke-542" stroke-linecap="round"></path>
                <polyline id="Stroke-543" points="42.2 29.4 42.2 35.8 49.9344 35.8"></polyline>
                <path d="M42.2,0.6 L42.2,29.4" id="Stroke-544" stroke-linecap="round"></path>
                <path d="M45.4,58.2 L58.2,58.2" id="Stroke-545" stroke-linecap="round"></path>
                <polygon id="Stroke-546" stroke-linecap="round" points="64.6 58.2 55 58.2 48.6 29.4 58.2 29.4"></polygon>
            </g>
        </g>
    </g>
</svg>