<?xml version="1.0" encoding="UTF-8"?>
<svg width="54px" height="64px" viewBox="0 0 54 64" version="1.1" xmlns="http://www.w3.org/2000/svg" xmlns:xlink="http://www.w3.org/1999/xlink">
    <!-- Generator: Sketch 52.5 (67469) - http://www.bohemiancoding.com/sketch -->
    <title>icon-kitchens</title>
    <desc>Created with Sketch.</desc>
    <g id="Page-1" stroke="none" stroke-width="1" fill="none" fill-rule="evenodd" stroke-linecap="round" stroke-linejoin="round">
        <g id="02" transform="translate(-232.000000, -1512.000000)" stroke="#007984" stroke-width="2">
            <g id="icon-kitchens" transform="translate(233.785629, 1512.742937)">
                <path d="M41.4218667,7.164 C39.8245333,7.164 38.3232,7.564 37.0112,8.27066667 C35.7472,3.788 30.2992,0.497333333 25.4138667,0.497333333 C20.5285333,0.497333333 15.0112,3.788 13.7445333,8.27066667 C12.4325333,7.564 10.9285333,7.164 9.3392,7.164 C4.18186667,7.164 0.0032,11.3426667 0.0032,16.4973333 C0.0032,21.652 4.00053333,25.8306667 9.33386667,25.8306667 L9.33386667,61.6653333 L41.4138667,61.6653333 L41.4138667,25.8306667 C46.7472,25.8306667 50.7498667,21.652 50.7498667,16.4973333 C50.7498667,11.3426667 46.5738667,7.164 41.4218667,7.164 L41.4218667,7.164 Z" id="Stroke-1598"></path>
                <path d="M9.33333333,51 L41.4133333,51" id="Stroke-1599"></path>
                <path d="M17.3594667,40.3333333 L17.3594667,51" id="Stroke-1600"></path>
                <path d="M25.3333333,37.6666667 L25.3333333,51" id="Stroke-1601"></path>
                <path d="M33.388,40.3333333 L33.388,51" id="Stroke-1602"></path>
            </g>
        </g>
    </g>
</svg>