<?xml version="1.0" encoding="UTF-8"?>
<svg width="65px" height="64px" viewBox="0 0 65 64" version="1.1" xmlns="http://www.w3.org/2000/svg" xmlns:xlink="http://www.w3.org/1999/xlink">
    <!-- Generator: Sketch 52.5 (67469) - http://www.bohemiancoding.com/sketch -->
    <title>icon-furniture</title>
    <desc>Created with Sketch.</desc>
    <g id="Page-1" stroke="none" stroke-width="1" fill="none" fill-rule="evenodd" stroke-linejoin="round">
        <g id="02" transform="translate(-1008.000000, -1171.000000)" stroke="#007984" stroke-width="2">
            <g id="icon-furniture" transform="translate(1009.452296, 1171.742937)">
                <path d="M27,20.4272 L30.016,23.4432" id="Stroke-600" stroke-linecap="round"></path>
                <path d="M27,28.4272 L30.1093333,25.3205333" id="Stroke-601" stroke-linecap="round"></path>
                <path d="M13.6666667,56.3333333 L13.6666667,61.6666667" id="Stroke-602" stroke-linecap="round"></path>
                <path d="M48.3333333,56.3333333 L48.3333333,61.6666667" id="Stroke-603" stroke-linecap="round"></path>
                <path d="M56.3333333,51.0989333 C56.3333333,54.0429333 53.9493333,56.3336 51,56.3336 L11,56.3336 C8.056,56.3336 5.66666667,54.0429333 5.66666667,51.0989333 L5.66666667,46.9416 C5.66666667,44.6082667 7.184,42.5496 9.41333333,41.8562667 C14.4666667,40.2802667 23.6773333,37.7656 31,37.7656 C38.3226667,37.7656 47.5333333,40.2802667 52.5866667,41.8562667 C54.8133333,42.5469333 56.3333333,44.6082667 56.3333333,46.9416 L56.3333333,51.0989333 L56.3333333,51.0989333 Z" id="Stroke-604"></path>
                <path d="M56.0912,45.388 C59.3258667,44.3613333 61.6672,41.3346667 61.6672,37.7666667 C61.6672,33.3426667 58.0858667,29.7613333 53.6672,29.7613333 C49.2485333,29.7613333 45.6672,33.3426667 45.6672,37.7666667 C45.6672,38.54 45.7845333,39.2893333 45.9898667,39.9986667" id="Stroke-605"></path>
                <path d="M16.0104,39.9986667 C16.2157333,39.2893333 16.3330667,38.54 16.3330667,37.7666667 C16.3330667,33.348 12.7517333,29.7613333 8.33306667,29.7613333 C3.9144,29.7613333 0.333066667,33.348 0.333066667,37.7666667 C0.333066667,41.3346667 2.6744,44.3613333 5.90906667,45.388" id="Stroke-606"></path>
                <path d="M54.3464,29.6978667 C54.7570667,27.9485333 54.9997333,26.1352 54.9997333,24.2552 C54.9997333,11.0392 44.2904,0.332533333 31.0770667,0.332533333 C17.8637333,0.332533333 7.1544,11.0392 7.1544,24.2552 C7.1544,26.1352 7.3944,27.9458667 7.80506667,29.6925333" id="Stroke-607"></path>
                <path d="M31.8933333,25.3229333 L35,28.4269333" id="Stroke-608" stroke-linecap="round"></path>
                <path d="M31.9818667,23.4504 L35.0005333,20.4264" id="Stroke-609" stroke-linecap="round"></path>
                <path d="M32.3333333,24.3333333 C32.3333333,25.0693333 31.736,25.6666667 31,25.6666667 C30.264,25.6666667 29.6666667,25.0693333 29.6666667,24.3333333 C29.6666667,23.5973333 30.264,23 31,23 C31.736,23 32.3333333,23.5973333 32.3333333,24.3333333 L32.3333333,24.3333333 Z" id="Stroke-610" stroke-linecap="round"></path>
            </g>
        </g>
    </g>
</svg>