<?xml version="1.0" encoding="UTF-8"?>
<svg width="65px" height="64px" viewBox="0 0 65 64" version="1.1" xmlns="http://www.w3.org/2000/svg" xmlns:xlink="http://www.w3.org/1999/xlink">
    <!-- Generator: Sketch 52.5 (67469) - http://www.bohemiancoding.com/sketch -->
    <title>icon-apartments</title>
    <desc>Created with Sketch.</desc>
    <g id="Page-1" stroke="none" stroke-width="1" fill="none" fill-rule="evenodd" stroke-linejoin="round">
        <g id="02" transform="translate(-608.000000, -1171.000000)" stroke="#007984" stroke-width="2">
            <g id="icon-apartments" transform="translate(609.452296, 1171.742937)">
                <polyline id="Stroke-6012" points="39 61.6666667 0.333333333 61.6666667 0.333333333 0.333333333 61.6666667 0.333333333 61.6666667 47"></polyline>
                <path d="M16.3333333,11 C16.3333333,8.05333333 13.9466667,5.66666667 11,5.66666667 C8.056,5.66666667 5.66666667,8.05333333 5.66666667,11 L5.66666667,24.3333333 L16.3333333,24.3333333 L16.3333333,11 L16.3333333,11 Z" id="Stroke-6013"></path>
                <path d="M32.3333333,11 C32.3333333,8.05333333 29.9466667,5.66666667 27,5.66666667 C24.056,5.66666667 21.6666667,8.05333333 21.6666667,11 L21.6666667,24.3333333 L32.3333333,24.3333333 L32.3333333,11 L32.3333333,11 Z" id="Stroke-6014"></path>
                <path d="M16.3333333,37.6666667 C16.3333333,34.72 13.9466667,32.3333333 11,32.3333333 C8.056,32.3333333 5.66666667,34.72 5.66666667,37.6666667 L5.66666667,51 L16.3333333,51 L16.3333333,37.6666667 L16.3333333,37.6666667 Z" id="Stroke-6015"></path>
                <path d="M32.3333333,37.6666667 C32.3333333,34.72 29.9466667,32.3333333 27,32.3333333 C24.056,32.3333333 21.6666667,34.72 21.6666667,37.6666667 L21.6666667,51 L32.3333333,51 L32.3333333,37.6666667 L32.3333333,37.6666667 Z" id="Stroke-6016"></path>
                <path d="M56.3333333,29.6666667 C56.3333333,26.72 53.9466667,24.3333333 51,24.3333333 L48.3333333,24.3333333 C45.3893333,24.3333333 43,26.72 43,29.6666667 L43,45.6666667 L56.3333333,45.6666667 L56.3333333,29.6666667 L56.3333333,29.6666667 Z" id="Stroke-6017"></path>
                <path d="M55,12.3333333 C55,15.2773333 52.6133333,17.6666667 49.6666667,17.6666667 C46.7226667,17.6666667 44.3333333,15.2773333 44.3333333,12.3333333 C44.3333333,9.38666667 46.7226667,7 49.6666667,7 C52.6133333,7 55,9.38666667 55,12.3333333 L55,12.3333333 Z" id="Stroke-6018"></path>
                <polygon id="Stroke-6019" points="61.6666667 45.6666667 37.6666667 45.6666667 37.6666667 61.6666667 61.6666667 61.6666667"></polygon>
                <path d="M37.6666667,51 L61.6666667,51" id="Stroke-6020"></path>
                <path d="M37.6666667,56.3333333 L61.6666667,56.3333333" id="Stroke-6021"></path>
                <path d="M37.6666667,0.333333333 L37.6666667,47" id="Stroke-6022"></path>
            </g>
        </g>
    </g>
</svg>